# xmcd
#
# Track frame offsets: 
#        150
#        13632
#        25262
#        38241
#        51072
#        64601
#        76432
#        87620
#        99550
#        111279
#        124920
#        137752
#        150526
#        162080
#        173453
#        186436
#        197491
#        209625
#        222046
#        233903
#        244118
#        255777
#        266652
#        277021
#        287360
#        298135
#        308432
#        322247
#        333281
#
# Disc length: 4585 seconds
#
# Revision: 3
# Processed by: cddbd v1.5.2PL0 Copyright (c) Steve Scherf et al.
# Submitted via: ExactAudioCopy v0.95b4
#
DISCID=a111e71d
DTITLE=Robert Johnson - The Complete Collection
DYEAR=1937
DGENRE=Blues
TTITLE0=I Believe I'll Dust My Broom
TTITLE1=Phonograph Blues
TTITLE2=Ramblin' On My Mind
TTITLE3=Kindhearted Woman Blues
TTITLE4=Terraplane Blues
TTITLE5=I'm A Steady Rollin' Man
TTITLE6=Walking Blues
TTITLE7=Last Fair Deal Gone Down
TTITLE8=Dead Shrimp Blues
TTITLE9=Sweet Home Chicago
TTITLE10=32-20 Blues
TTITLE11=Come On In My Kitchen
TTITLE12=If I Had Possesion Over Judgement Day
TTITLE13=Me And The Devil Blues
TTITLE14=Preaching Blues (Up Jumped The Devil)
TTITLE15=Stones In My Passway
TTITLE16=Cross Road Blues
TTITLE17=Traveling Riverside Blues
TTITLE18=When You Got A Good Friend
TTITLE19=Milkcow's Calf Blues
TTITLE20=Hellhound On My Trail
TTITLE21=From Four 'Til Late
TTITLE22=Honeymoon Blues
TTITLE23=Stop Breakin' Down Blues
TTITLE24=Malted Milk
TTITLE25=Little Queen Of Spades
TTITLE26=They're Red Hot
TTITLE27=Drunken Hearted Man
TTITLE28=Love In Vain
EXTD=YEAR: 1937
EXTT0=
EXTT1=
EXTT2=
EXTT3=
EXTT4=
EXTT5=
EXTT6=
EXTT7=
EXTT8=
EXTT9=
EXTT10=
EXTT11=
EXTT12=
EXTT13=
EXTT14=
EXTT15=
EXTT16=
EXTT17=
EXTT18=
EXTT19=
EXTT20=
EXTT21=
EXTT22=
EXTT23=
EXTT24=
EXTT25=
EXTT26=
EXTT27=
EXTT28=
PLAYORDER=
